<svg width="343" height="343" viewBox="0 0 343 343" fill="none" xmlns="http://www.w3.org/2000/svg">
<g clip-path="url(#clip0_16_9800)">
<mask id="mask0_16_9800" style="mask-type:luminance" maskUnits="userSpaceOnUse" x="30" y="0" width="282" height="344">
<path d="M311.667 118.773C311.667 117.937 311.649 117.102 311.617 116.271C311.617 113.459 311.617 112.496 311.617 113.706C311.617 114.305 311.606 114.901 311.583 115.496C310.879 101.519 305.683 88.3353 297.046 77.7613C292.104 71.7131 286.04 66.5192 279.044 62.5164L169.753 0L65.3485 60.1755L63.468 61.2591C56.4724 65.2602 50.4081 70.4558 45.4667 76.504C36.7141 87.2159 31.4952 100.605 30.9006 114.786C30.863 114.013 30.8433 113.234 30.8433 112.449C30.8433 106.147 30.8254 158.728 30.8164 224.778C30.8164 225.615 30.8343 226.449 30.8666 227.28C30.8666 230.092 30.8666 231.056 30.8666 229.845C30.8666 229.247 30.8773 228.651 30.9006 228.056C31.6044 242.033 36.8001 255.216 45.4381 265.79C50.3794 271.839 56.4437 277.032 63.4393 281.035L171.764 343.002L222.829 314.115C223.031 313.995 223.239 313.871 223.45 313.746L277.062 283.399C277.096 283.381 277.114 283.371 277.114 283.371L279.016 282.294C286.011 278.293 292.076 273.098 297.017 267.049C305.768 256.337 310.988 242.948 311.581 228.767C311.619 229.541 311.639 230.32 311.639 231.104C311.639 237.407 311.656 184.825 311.665 118.775L311.667 118.773Z" fill="white"/>
</mask>
<g mask="url(#mask0_16_9800)">
<path d="M311.667 118.773C311.669 103.586 306.355 89.1591 297.044 77.7613C292.102 71.7131 286.038 66.5192 279.042 62.5164L169.753 0L119.653 29.4385C104.564 38.4329 65.3575 60.1881 65.3575 60.1881L169.753 121.25L284.849 188.206C300.713 195.96 311.642 212.252 311.642 231.099C311.642 237.401 311.66 184.82 311.669 118.77L311.667 118.773Z" fill="#750548"/>
<path d="M277.115 283.369L171.766 221.748L57.6347 155.342C41.7719 147.589 30.8433 131.296 30.8433 112.449C30.8433 106.147 30.8254 158.729 30.8164 224.779C30.8146 239.966 36.1285 254.393 45.4399 265.791C50.3812 271.839 56.4455 277.033 63.4411 281.036L171.767 343.002L222.832 314.115C237.921 305.121 277.117 283.371 277.117 283.371L277.115 283.369Z" fill="#D90986"/>
<path d="M257.492 172.349L169.942 121.141L169.753 121.252L84.7163 171.094L171.642 221.82L171.766 221.746L257.492 172.349Z" fill="#9E0B64"/>
<g filter="url(#filter0_d_16_9800)">
<path d="M141.598 239.393C126.231 248.554 116.72 265.002 116.411 282.848C117.04 300.319 126.482 316.343 141.571 325.337L171.766 342.998L277.115 283.367L171.644 221.818L141.598 239.391V239.393Z" fill="#FF33AE"/>
<path d="M311.615 113.709C311.615 132.555 300.687 148.848 284.822 156.601L257.491 172.349L311.639 204.021C311.63 148.755 311.615 108.123 311.615 113.707V113.709Z" fill="#FF5CBE"/>
<path d="M297.019 267.048C306.33 255.652 311.644 241.223 311.642 226.038C311.642 218.501 311.64 211.14 311.639 204.023L257.491 172.351L171.767 221.748L171.644 221.82L277.115 283.369L279.017 282.293C286.013 278.292 292.077 273.096 297.019 267.048Z" fill="#F21B9C"/>
</g>
<g filter="url(#filter1_d_16_9800)">
<path d="M30.8684 229.845C30.8684 210.999 41.797 194.706 57.6616 186.953L84.7164 171.095L30.8451 139.656C30.8541 194.858 30.8684 235.422 30.8684 229.843V229.845Z" fill="#FF5CBE"/>
<path d="M169.942 121.141L134.692 100.523L65.3486 60.1756L63.468 61.2591C56.4724 65.2602 50.4081 70.4558 45.4668 76.504C36.1554 87.9019 30.8415 102.328 30.8433 117.516C30.8433 125.097 30.8451 132.499 30.8469 139.658L84.7181 171.095L169.753 121.254L169.942 121.143V121.141Z" fill="#FA2AA8"/>
<path d="M169.942 121.141L199.92 103.607C215.287 94.4462 224.799 77.9977 225.107 60.1522C224.478 42.6811 215.036 26.6571 199.947 17.6628L169.753 0L65.3485 60.1755L134.692 100.523L169.942 121.141Z" fill="#F21B9C"/>
</g>
</g>
</g>
<defs>
<filter id="filter0_d_16_9800" x="89.6771" y="86.4593" width="248.699" height="283.273" filterUnits="userSpaceOnUse" color-interpolation-filters="sRGB">
<feFlood flood-opacity="0" result="BackgroundImageFix"/>
<feColorMatrix in="SourceAlpha" type="matrix" values="0 0 0 0 0 0 0 0 0 0 0 0 0 0 0 0 0 0 127 0" result="hardAlpha"/>
<feOffset/>
<feGaussianBlur stdDeviation="13.3672"/>
<feColorMatrix type="matrix" values="0 0 0 0 0.458824 0 0 0 0 0.0196078 0 0 0 0 0.282353 0 0 0 0.8 0"/>
<feBlend mode="normal" in2="BackgroundImageFix" result="effect1_dropShadow_16_9800"/>
<feBlend mode="normal" in="SourceGraphic" in2="effect1_dropShadow_16_9800" result="shape"/>
</filter>
<filter id="filter1_d_16_9800" x="4.10898" y="-26.7343" width="247.732" height="283.825" filterUnits="userSpaceOnUse" color-interpolation-filters="sRGB">
<feFlood flood-opacity="0" result="BackgroundImageFix"/>
<feColorMatrix in="SourceAlpha" type="matrix" values="0 0 0 0 0 0 0 0 0 0 0 0 0 0 0 0 0 0 127 0" result="hardAlpha"/>
<feOffset/>
<feGaussianBlur stdDeviation="13.3672"/>
<feColorMatrix type="matrix" values="0 0 0 0 0.529412 0 0 0 0 0.0313726 0 0 0 0 0.329412 0 0 0 0.8 0"/>
<feBlend mode="normal" in2="BackgroundImageFix" result="effect1_dropShadow_16_9800"/>
<feBlend mode="normal" in="SourceGraphic" in2="effect1_dropShadow_16_9800" result="shape"/>
</filter>
<clipPath id="clip0_16_9800">
<rect width="343" height="343" fill="white"/>
</clipPath>
</defs>
</svg>
